<?xml version="1.0" encoding="UTF-8" standalone="no"?>
<svg
   xmlns:dc="http://purl.org/dc/elements/1.1/"
   xmlns:cc="http://creativecommons.org/ns#"
   xmlns:rdf="http://www.w3.org/1999/02/22-rdf-syntax-ns#"
   xmlns:svg="http://www.w3.org/2000/svg"
   xmlns="http://www.w3.org/2000/svg"
   xmlns:sodipodi="http://sodipodi.sourceforge.net/DTD/sodipodi-0.dtd"
   xmlns:inkscape="http://www.inkscape.org/namespaces/inkscape"
   version="1.1"
   x="0px"
   y="0px"
   width="350"
   height="90"
   viewBox="0 0 3500 900"
   enable-background="new 0 0 640 640"
   xml:space="preserve"
   id="svg18"
   sodipodi:docname="ae-logo-64.svg"
   inkscape:version="1.0.1 (3bc2e813f5, 2020-09-07)"><metadata
   id="metadata24"><rdf:RDF><cc:Work
       rdf:about=""><dc:format>image/svg+xml</dc:format><dc:type
         rdf:resource="http://purl.org/dc/dcmitype/StillImage" /><dc:title></dc:title></cc:Work></rdf:RDF></metadata><defs
   id="defs22" /><sodipodi:namedview
   pagecolor="#ffffff"
   bordercolor="#666666"
   borderopacity="1"
   objecttolerance="10"
   gridtolerance="10"
   guidetolerance="10"
   inkscape:pageopacity="0"
   inkscape:pageshadow="2"
   inkscape:window-width="2560"
   inkscape:window-height="1387"
   id="namedview20"
   showgrid="false"
   inkscape:zoom="6.0966561"
   inkscape:cx="162.45605"
   inkscape:cy="32"
   inkscape:window-x="3832"
   inkscape:window-y="707"
   inkscape:window-maximized="1"
   inkscape:current-layer="svg18" />

<g
   id="g866"
   transform="translate(0,130)"><g
     id="background">
	<g
   id="outer">
		<circle
   fill="#69798c"
   cx="320"
   cy="320"
   r="316"
   id="circle2" />
	</g>
	<g
   id="inner">
		<circle
   fill="#edf2f8"
   cx="320"
   cy="320"
   r="284"
   id="circle5" />
	</g>
</g><g
     id="ae_logo"
     transform="translate(0,2.6931471)">
	<linearGradient
   id="ae_logo_fill"
   gradientUnits="userSpaceOnUse"
   x1="51.001999"
   y1="337.80179"
   x2="544.54529"
   y2="303.28989">
		<stop
   offset="0"
   style="stop-color:#960800"
   id="stop9" />
		<stop
   offset="0.5"
   style="stop-color:#FF3F3F"
   id="stop11" />
		<stop
   offset="1"
   style="stop-color:#00FF00"
   id="stop13" />
	</linearGradient>
	
		<path
   id="ae_logo_path"
   fill="url(#ae_logo_fill)"
   d="m 291,500 c -0.747,-10.825 15,-69 18,-138 0.479,-11.007 1.49,-23.977 -23,-29 -39,-8 -127,-7 -167,-1 -10.986,1.647 -22.738,6 -22,20 1.115,21.142 12.72,44.258 22.335,59.709 6.242,10.053 27.729,38.689 3.86,29.291 C 101,429 71.368,396.854 57,359 45,329 49.877,285.829 66,257 c 18.803,-33.647 50.104,-61.067 82,-78 81,-43 149,-47 197,-47 84.006,0 147,20 182,40 24.433,13.961 -7,14 -25.516,9.996 -18.306,-3.958 -109.943,-27.685 -165.689,-20.548 -19.095,2.445 -26.806,14.615 -21.849,39.94 7.743,28.412 13.993,43.667 21.054,60.612 10,24 12.035,32.688 49,37 60,7 81.549,8.391 103.119,11.804 13.881,2.196 14.645,8.984 0.552,11.421 C 468.306,325.599 429,328 384,332 c -31.937,2.839 -34,7 -40,32 -2.514,10.473 -7.221,50.201 -6.881,66.564 0.512,23.352 1.785,41.509 35.5,41.541 84.397,0.068 120.095,-25.004 157.324,-29.443 20.863,-2.494 26.445,4.441 17.057,9.338 -54.228,33.807 -137,59 -256,48 z M 302,269 C 299,243 289,220 283.932,210.124 272.505,187.856 257,163 207,185 c -28,12 -75,37 -97,72 -11.226,17.86 -15,40 8,42 40.776,3.546 117.154,4.484 162,0 30,-3 23.146,-20.064 22,-30 z"
   style="fill:url(#ae_logo_fill)" />
</g></g>
<g
   aria-label="ArrayExpress"
   id="text853"
   style="font-size:426.667px;line-height:1.25;font-family:'Ink Free';-inkscape-font-specification:'Ink Free, Normal';stroke-width:10"><path
     d="m 700.32739,597.81256 117.29176,-305.4169 h 43.5417 l 125.00009,305.4169 h -46.0417 L 904.49421,505.31249 H 776.78578 l -33.54169,92.50007 z M 788.45246,472.3958 H 891.9942 l -31.87502,-84.5834 q -14.58334,-38.5417 -21.66668,-63.33338 -5.83334,29.37502 -16.45835,58.33338 z"
     style="font-style:normal;font-variant:normal;font-weight:normal;font-stretch:normal;font-size:426.667px;font-family:Arial;-inkscape-font-specification:Arial;fill:#ffffff;fill-opacity:1;stroke-width:10"
     id="path868" /><path
     d="M 1013.2443,597.81256 V 376.56239 h 33.75 v 33.54169 q 12.9167,-23.54168 23.75,-31.04169 11.0417,-7.5 24.1667,-7.5 18.9584,0 38.5417,12.08334 l -12.9166,34.79169 q -13.7501,-8.125 -27.5001,-8.125 -12.2916,0 -22.0833,7.5 -9.7917,7.29168 -13.9584,20.41669 -6.25,20.00001 -6.25,43.75003 v 115.83342 z"
     style="font-style:normal;font-variant:normal;font-weight:normal;font-stretch:normal;font-size:426.667px;font-family:Arial;-inkscape-font-specification:Arial;fill:#ffffff;fill-opacity:1;stroke-width:10"
     id="path870" /><path
     d="M 1155.3277,597.81256 V 376.56239 h 33.7501 v 33.54169 q 12.9166,-23.54168 23.75,-31.04169 11.0417,-7.5 24.1667,-7.5 18.9583,0 38.5417,12.08334 l -12.9167,34.79169 q -13.75,-8.125 -27.5,-8.125 -12.2917,0 -22.0834,7.5 -9.7917,7.29168 -13.9583,20.41669 -6.25,20.00001 -6.25,43.75003 v 115.83342 z"
     style="font-style:normal;font-variant:normal;font-weight:normal;font-stretch:normal;font-size:426.667px;font-family:Arial;-inkscape-font-specification:Arial;fill:#ffffff;fill-opacity:1;stroke-width:10"
     id="path872" /><path
     d="m 1442.203,570.52087 q -20.8334,17.70835 -40.2084,25.00002 -19.1667,7.29167 -41.25,7.29167 -36.4584,0 -56.0418,-17.70834 -19.5833,-17.91668 -19.5833,-45.62504 0,-16.25001 7.2917,-29.58335 7.5,-13.54168 19.375,-21.66669 12.0833,-8.125 27.0833,-12.29167 11.0417,-2.91667 33.3334,-5.62501 45.4167,-5.41667 66.875,-12.91667 0.2084,-7.70834 0.2084,-9.79168 0,-22.91668 -10.625,-32.29169 -14.375,-12.70834 -42.7084,-12.70834 -26.4583,0 -39.1667,9.37501 -12.5,9.16667 -18.5417,32.70835 l -36.6667,-5 q 5,-23.54168 16.4584,-37.9167 11.4583,-14.58334 33.125,-22.29168 21.6667,-7.91667 50.2084,-7.91667 28.3333,0 46.0417,6.66667 17.7083,6.66667 26.0417,16.87501 8.3333,10.00001 11.6666,25.41669 1.875,9.58334 1.875,34.58336 v 50.00004 q 0,52.2917 2.2917,66.25005 2.5,13.75001 9.5834,26.45835 h -39.1667 q -5.8334,-11.66667 -7.5,-27.29169 z m -3.1251,-83.75006 q -20.4166,8.33334 -61.25,14.16668 -23.125,3.33333 -32.7084,7.5 -9.5833,4.16667 -14.7916,12.29168 -5.2084,7.91667 -5.2084,17.70835 0,15.00001 11.25,25.00001 11.4584,10.00001 33.3334,10.00001 21.6667,0 38.5417,-9.375 16.875,-9.58335 24.7917,-26.04169 6.0416,-12.70834 6.0416,-37.50003 z"
     style="font-style:normal;font-variant:normal;font-weight:normal;font-stretch:normal;font-size:426.667px;font-family:Arial;-inkscape-font-specification:Arial;fill:#ffffff;fill-opacity:1;stroke-width:10"
     id="path874" /><path
     d="m 1533.453,683.02096 -4.1666,-35.20836 q 12.2916,3.33334 21.4583,3.33334 12.5,0 20,-4.16667 7.5,-4.16667 12.2917,-11.66668 3.5417,-5.625 11.4584,-27.91669 1.0416,-3.125 3.3333,-9.16667 l -83.9584,-221.66684 h 40.4167 l 46.0417,128.1251 q 8.9583,24.37502 16.0417,51.25004 6.4583,-25.83335 15.4167,-50.41671 l 47.2917,-128.95843 h 37.5 l -84.1667,225.00017 q -13.5417,36.45837 -21.0417,50.20838 -10,18.54168 -22.9167,27.08335 -12.9167,8.75001 -30.8334,8.75001 -10.8333,0 -24.1667,-4.58334 z"
     style="font-style:normal;font-variant:normal;font-weight:normal;font-stretch:normal;font-size:426.667px;font-family:Arial;-inkscape-font-specification:Arial;fill:#ffffff;fill-opacity:1;stroke-width:10"
     id="path876" /><path
     d="m 1754.0782,597.81256 v -305.4169 h 220.8335 v 36.0417 h -180.4168 v 93.54173 h 168.9585 v 35.83336 h -168.9585 v 103.95842 h 187.5002 v 36.04169 z"
     style="font-style:normal;font-variant:normal;font-weight:normal;font-stretch:normal;font-size:426.667px;font-family:Arial;-inkscape-font-specification:Arial;fill:#ffffff;fill-opacity:1;stroke-width:10"
     id="path878" /><path
     d="m 2008.0367,597.81256 80.8334,-115.00009 -74.7917,-106.25008 h 46.8751 l 33.9583,51.87504 q 9.5834,14.79168 15.4167,24.79169 9.1667,-13.75001 16.875,-24.37502 l 37.2917,-52.29171 h 44.7917 l -76.4584,104.16675 82.2917,117.08342 h -46.0417 l -45.4167,-68.75005 -12.0833,-18.54168 -58.1251,87.29173 z"
     style="font-style:normal;font-variant:normal;font-weight:normal;font-stretch:normal;font-size:426.667px;font-family:Arial;-inkscape-font-specification:Arial;fill:#ffffff;fill-opacity:1;stroke-width:10"
     id="path880" /><path
     d="m 2246.3703,682.60429 v -306.0419 h 34.1667 v 28.75002 q 12.0833,-16.87501 27.2916,-25.20835 15.2084,-8.54167 36.8751,-8.54167 28.3333,0 50,14.58334 21.6667,14.58335 32.7084,41.25003 11.0416,26.45836 11.0416,58.12505 0,33.95836 -12.2916,61.25005 -12.0834,27.08335 -35.4167,41.66669 -23.125,14.37501 -48.7501,14.37501 -18.75,0 -33.75,-7.91667 -14.7917,-7.91667 -24.375,-20.00001 v 107.70841 z m 33.9583,-194.16681 q 0,42.70836 17.2917,63.12505 17.2917,20.41668 41.875,20.41668 25.0001,0 42.7084,-21.04168 17.9167,-21.25002 17.9167,-65.62505 0,-42.2917 -17.5,-63.33339 -17.2917,-21.04168 -41.4584,-21.04168 -23.9584,0 -42.5,22.50002 -18.3334,22.29168 -18.3334,65.00005 z"
     style="font-style:normal;font-variant:normal;font-weight:normal;font-stretch:normal;font-size:426.667px;font-family:Arial;-inkscape-font-specification:Arial;fill:#ffffff;fill-opacity:1;stroke-width:10"
     id="path882" /><path
     d="M 2483.2455,597.81256 V 376.56239 h 33.75 v 33.54169 q 12.9167,-23.54168 23.75,-31.04169 11.0417,-7.5 24.1667,-7.5 18.9583,0 38.5417,12.08334 l -12.9167,34.79169 q -13.75,-8.125 -27.5,-8.125 -12.2917,0 -22.0834,7.5 -9.7916,7.29168 -13.9583,20.41669 -6.25,20.00001 -6.25,43.75003 v 115.83342 z"
     style="font-style:normal;font-variant:normal;font-weight:normal;font-stretch:normal;font-size:426.667px;font-family:Arial;-inkscape-font-specification:Arial;fill:#ffffff;fill-opacity:1;stroke-width:10"
     id="path884" /><path
     d="m 2777.204,526.56251 38.75,4.79167 q -9.1667,33.95836 -33.9584,52.70837 -24.7917,18.75001 -63.3334,18.75001 -48.5417,0 -77.0833,-29.79168 -28.3334,-30.00003 -28.3334,-83.9584 0,-55.83338 28.75,-86.66673 28.75,-30.83336 74.5834,-30.83336 44.375,0 72.5001,30.20835 28.125,30.20836 28.125,85.00007 0,3.33334 -0.2083,10.00001 h -165.0002 q 2.0834,36.45836 20.625,55.83337 18.5417,19.37502 46.2501,19.37502 20.625,0 35.2083,-10.83334 14.5834,-10.83335 23.1251,-34.58336 z m -123.1251,-60.62505 h 123.5417 q -2.5,-27.91669 -14.1667,-41.87503 -17.9166,-21.66668 -46.4583,-21.66668 -25.8334,0 -43.5417,17.29168 -17.5,17.29167 -19.375,46.25003 z"
     style="font-style:normal;font-variant:normal;font-weight:normal;font-stretch:normal;font-size:426.667px;font-family:Arial;-inkscape-font-specification:Arial;fill:#ffffff;fill-opacity:1;stroke-width:10"
     id="path886" /><path
     d="m 2848.0374,531.77084 37.0833,-5.83333 q 3.125,22.29168 17.2917,34.16669 14.375,11.87501 40,11.87501 25.8334,0 38.3334,-10.41668 12.5,-10.625 12.5,-24.79168 0,-12.70835 -11.0417,-20.00002 -7.7083,-5 -38.3333,-12.70834 -41.2501,-10.41668 -57.2917,-17.91668 -15.8334,-7.70834 -24.1667,-21.04168 -8.125,-13.54168 -8.125,-29.79169 0,-14.79168 6.6666,-27.29169 6.875,-12.70834 18.5417,-21.04168 8.75,-6.45834 23.75,-10.83334 15.2084,-4.58334 32.5001,-4.58334 26.0417,0 45.625,7.5 19.7917,7.50001 29.1667,20.41669 9.375,12.70834 12.9167,34.16669 l -36.6667,5 q -2.5,-17.08334 -14.5834,-26.66668 -11.875,-9.58334 -33.75,-9.58334 -25.8334,0 -36.875,8.54167 -11.0417,8.54167 -11.0417,20.00001 0,7.29168 4.5833,13.12501 4.5834,6.04168 14.375,10.00001 5.625,2.08334 33.1251,9.58334 39.7917,10.62501 55.4167,17.50002 15.8333,6.66667 24.7917,19.58334 8.9583,12.91668 8.9583,32.08336 0,18.75002 -11.0417,35.4167 -10.8333,16.45834 -31.4583,25.62501 -20.625,8.95834 -46.6667,8.95834 -43.1251,0 -65.8334,-17.91668 -22.5,-17.91668 -28.75,-53.12504 z"
     style="font-style:normal;font-variant:normal;font-weight:normal;font-stretch:normal;font-size:426.667px;font-family:Arial;-inkscape-font-specification:Arial;fill:#ffffff;fill-opacity:1;stroke-width:10"
     id="path888" /><path
     d="m 3061.3709,531.77084 37.0833,-5.83333 q 3.125,22.29168 17.2917,34.16669 14.375,11.87501 40,11.87501 25.8334,0 38.3334,-10.41668 12.5,-10.625 12.5,-24.79168 0,-12.70835 -11.0417,-20.00002 -7.7083,-5 -38.3333,-12.70834 -41.2501,-10.41668 -57.2917,-17.91668 -15.8334,-7.70834 -24.1667,-21.04168 -8.125,-13.54168 -8.125,-29.79169 0,-14.79168 6.6666,-27.29169 6.875,-12.70834 18.5417,-21.04168 8.75,-6.45834 23.75,-10.83334 15.2084,-4.58334 32.5001,-4.58334 26.0416,0 45.625,7.5 19.7917,7.50001 29.1667,20.41669 9.375,12.70834 12.9167,34.16669 l -36.6667,5 q -2.5,-17.08334 -14.5834,-26.66668 -11.875,-9.58334 -33.75,-9.58334 -25.8334,0 -36.875,8.54167 -11.0417,8.54167 -11.0417,20.00001 0,7.29168 4.5833,13.12501 4.5834,6.04168 14.375,10.00001 5.625,2.08334 33.1251,9.58334 39.7917,10.62501 55.4167,17.50002 15.8333,6.66667 24.7917,19.58334 8.9583,12.91668 8.9583,32.08336 0,18.75002 -11.0417,35.4167 -10.8333,16.45834 -31.4583,25.62501 -20.625,8.95834 -46.6667,8.95834 -43.1251,0 -65.8334,-17.91668 -22.5,-17.91668 -28.75,-53.12504 z"
     style="font-style:normal;font-variant:normal;font-weight:normal;font-stretch:normal;font-size:426.667px;font-family:Arial;-inkscape-font-specification:Arial;fill:#ffffff;fill-opacity:1;stroke-width:10"
     id="path890" /></g></svg>
