<?xml version="1.0" encoding="UTF-8" standalone="no"?>
<svg
   height="1em"
   viewBox="0 0 640 512"
   xmlns="http://www.w3.org/2000/svg"
   >
  <path fill="currentColor"
     d="m 256,80 c -8.8,0 -16,7.2 -16,16 v 320 c 0,8.8 7.2,16 16,16 h 320 c 8.8,0 16,-7.2 16,-16 V 96 c 0,-8.8 -7.2,-16 -16,-16 z m -64,16 c 0,-35.3 28.7,-64 64,-64 h 320 c 35.3,0 64,28.7 64,64 v 320 c 0,35.3 -28.7,64 -64,64 H 256 c -35.3,0 -64,-28.7 -64,-64 V 280 H 0 v -50 h 192 z m 200,248 v -64 h -64 c -13.3,0 -24,-10.7 -24,-24 0,-13.3 10.7,-24 24,-24 h 64 v -64 c 0,-13.3 10.7,-24 24,-24 13.3,0 24,10.7 24,24 v 64 h 64 c 13.3,0 24,10.7 24,24 0,13.3 -10.7,24 -24,24 h -64 v 64 c 0,13.3 -10.7,24 -24,24 -13.3,0 -24,-10.7 -24,-24 z"
     />
</svg>
