<svg width="48" height="49" viewBox="0 0 48 49" fill="none" xmlns="http://www.w3.org/2000/svg">
<path d="M25.6295 0.0351562C28.9091 10.727 37.3086 19.1775 47.9684 22.5303V25.6611C37.3357 29.0053 28.9512 37.422 25.6539 48.0752H22.6188C19.3047 37.3677 10.852 28.9185 0.1422 25.6094V22.583C10.8792 19.2652 19.347 10.7816 22.6432 0.0351562H25.6295Z" fill="white"/>
<path d="M24.0964 0C24.0964 13.2437 34.7807 23.9921 48 24.0956V24.0971C34.7807 24.2007 24.0964 34.949 24.0964 48.1928C24.0964 34.8847 13.3081 24.0964 0 24.0964C13.3081 24.0964 24.0964 13.3081 24.0964 0ZM24 17.1566C20.1673 17.1566 17.0602 20.2637 17.0602 24.0964C17.0602 27.9291 20.1673 31.0361 24 31.0361C27.8327 31.0361 30.9398 27.9291 30.9398 24.0964C30.9398 20.2637 27.8327 17.1566 24 17.1566ZM24 18.2965C25.9343 18.2965 27.5024 19.8646 27.5024 21.7989C27.5023 23.7331 25.9343 25.3011 24 25.3011C22.0657 25.3011 20.4977 23.7331 20.4976 21.7989C20.4976 19.8646 22.0657 18.2965 24 18.2965Z" fill="#A761F2"/>
</svg>
